<mxfile host="65bd71144e">
    <diagram id="TLE-RexDa8ssE1_A65L4" name="Page-1">
        <mxGraphModel dx="5165" dy="2868" grid="1" gridSize="10" guides="1" tooltips="1" connect="1" arrows="1" fold="1" page="1" pageScale="1" pageWidth="850" pageHeight="1100" math="0" shadow="0">
            <root>
                <mxCell id="0"/>
                <mxCell id="1" parent="0"/>
                <mxCell id="143" value="" style="rounded=0;whiteSpace=wrap;html=1;fontColor=#ffffff;fillColor=#647687;strokeColor=#314354;" vertex="1" parent="1">
                    <mxGeometry x="-640" y="110" width="2270" height="1700" as="geometry"/>
                </mxCell>
                <mxCell id="12" value="&lt;h1&gt;&lt;font color=&quot;#ffffff&quot;&gt;Alien Escape&lt;/font&gt;&lt;/h1&gt;&lt;p style=&quot;&quot;&gt;&lt;font color=&quot;#ffffff&quot; style=&quot;font-size: 18px;&quot;&gt;Mon histoire se déroulera sur une station spatiale abandonnée flottant sur l'orbite d'une géante gazeuse. Tout en essayant de le quitter avant que la station ne brûle, vous devrez échapper/combattre des créatures extraterrestres.&lt;/font&gt;&lt;/p&gt;" style="text;html=1;strokeColor=none;fillColor=none;spacing=5;spacingTop=-20;whiteSpace=wrap;overflow=hidden;rounded=0;" parent="1" vertex="1">
                    <mxGeometry x="970" y="650" width="620" height="150" as="geometry"/>
                </mxCell>
                <mxCell id="56" style="edgeStyle=orthogonalEdgeStyle;html=1;fontSize=18;fontColor=#000000;" parent="1" source="14" target="23" edge="1">
                    <mxGeometry relative="1" as="geometry"/>
                </mxCell>
                <mxCell id="14" value="&lt;font color=&quot;#000000&quot;&gt;trouver une clé&lt;/font&gt;" style="rounded=1;whiteSpace=wrap;html=1;strokeColor=#3A5431;fontSize=18;fillColor=#6d8764;fontColor=#ffffff;" parent="1" vertex="1">
                    <mxGeometry x="40" y="370" width="120" height="60" as="geometry"/>
                </mxCell>
                <mxCell id="26" style="edgeStyle=orthogonalEdgeStyle;html=1;fontSize=18;fontColor=#000000;" parent="1" source="15" edge="1">
                    <mxGeometry relative="1" as="geometry">
                        <mxPoint x="490" y="230" as="targetPoint"/>
                        <Array as="points">
                            <mxPoint x="934.5" y="400"/>
                        </Array>
                    </mxGeometry>
                </mxCell>
                <mxCell id="15" value="L'Alien vous trouve" style="rounded=1;whiteSpace=wrap;html=1;strokeColor=#C73500;fontSize=18;fillColor=#fa6800;fontColor=#000000;" parent="1" vertex="1">
                    <mxGeometry x="714.5" y="370" width="120" height="60" as="geometry"/>
                </mxCell>
                <mxCell id="19" style="edgeStyle=none;html=1;fontSize=18;exitX=0;exitY=0.5;exitDx=0;exitDy=0;entryX=1;entryY=0.5;entryDx=0;entryDy=0;startArrow=none;" parent="1" source="86" target="14" edge="1">
                    <mxGeometry relative="1" as="geometry">
                        <mxPoint x="260" y="409.5" as="targetPoint"/>
                        <mxPoint x="348" y="409.5" as="sourcePoint"/>
                    </mxGeometry>
                </mxCell>
                <mxCell id="20" style="edgeStyle=none;html=1;fontSize=18;entryX=0;entryY=0.5;entryDx=0;entryDy=0;exitX=0.983;exitY=0.494;exitDx=0;exitDy=0;exitPerimeter=0;startArrow=none;" parent="1" source="82" target="15" edge="1">
                    <mxGeometry relative="1" as="geometry">
                        <mxPoint x="570" y="409.5" as="targetPoint"/>
                        <mxPoint x="503" y="409.5" as="sourcePoint"/>
                    </mxGeometry>
                </mxCell>
                <mxCell id="17" value="&lt;font style=&quot;font-size: 15px;&quot;&gt;Continuez dans l&lt;br&gt;e couloir ou suivez les escaliers&lt;/font&gt;" style="rhombus;whiteSpace=wrap;html=1;strokeColor=#BD7000;fontSize=18;fillColor=#f0a30a;fontColor=#000000;" parent="1" vertex="1">
                    <mxGeometry x="348" y="322.5" width="155" height="155" as="geometry"/>
                </mxCell>
                <mxCell id="55" style="edgeStyle=orthogonalEdgeStyle;html=1;fontSize=18;fontColor=#000000;" parent="1" source="21" edge="1">
                    <mxGeometry relative="1" as="geometry">
                        <mxPoint x="426" y="320" as="targetPoint"/>
                    </mxGeometry>
                </mxCell>
                <mxCell id="21" value="Tu te réveilles" style="ellipse;whiteSpace=wrap;html=1;strokeColor=#666666;fontSize=18;fontColor=#333333;fillColor=#f5f5f5;" parent="1" vertex="1">
                    <mxGeometry x="366" y="190" width="120" height="80" as="geometry"/>
                </mxCell>
                <mxCell id="60" style="edgeStyle=orthogonalEdgeStyle;html=1;fontSize=18;fontColor=#000000;entryX=1;entryY=0.5;entryDx=0;entryDy=0;startArrow=none;" parent="1" source="112" target="32" edge="1">
                    <mxGeometry relative="1" as="geometry">
                        <mxPoint x="270" y="737.5" as="targetPoint"/>
                    </mxGeometry>
                </mxCell>
                <mxCell id="68" style="edgeStyle=orthogonalEdgeStyle;html=1;entryX=0;entryY=0.5;entryDx=0;entryDy=0;fontSize=18;fontColor=#000000;startArrow=none;" parent="1" source="110" target="31" edge="1">
                    <mxGeometry relative="1" as="geometry"/>
                </mxCell>
                <mxCell id="116" style="edgeStyle=orthogonalEdgeStyle;html=1;entryX=0.5;entryY=0;entryDx=0;entryDy=0;fontSize=13;fontColor=#FFFFFF;startArrow=none;" parent="1" source="115" target="35" edge="1">
                    <mxGeometry relative="1" as="geometry"/>
                </mxCell>
                <mxCell id="22" value="la station commence à trembler" style="rhombus;whiteSpace=wrap;html=1;strokeColor=#BD7000;fontSize=18;fillColor=#f0a30a;fontColor=#000000;" parent="1" vertex="1">
                    <mxGeometry x="348" y="730" width="155" height="155" as="geometry"/>
                </mxCell>
                <mxCell id="58" style="edgeStyle=orthogonalEdgeStyle;html=1;fontSize=18;fontColor=#000000;entryX=1;entryY=0.5;entryDx=0;entryDy=0;exitX=0;exitY=0.5;exitDx=0;exitDy=0;startArrow=none;" parent="1" source="94" target="28" edge="1">
                    <mxGeometry relative="1" as="geometry">
                        <mxPoint x="-250" y="400" as="targetPoint"/>
                        <mxPoint x="-250" y="400" as="sourcePoint"/>
                    </mxGeometry>
                </mxCell>
                <mxCell id="23" value="entrez dans la &lt;br&gt;baie médicale ou dans les évents" style="rhombus;whiteSpace=wrap;html=1;strokeColor=#BD7000;fontSize=18;fillColor=#f0a30a;fontColor=#000000;" parent="1" vertex="1">
                    <mxGeometry x="-190" y="322.5" width="155" height="155" as="geometry"/>
                </mxCell>
                <mxCell id="62" style="edgeStyle=orthogonalEdgeStyle;html=1;entryX=0.5;entryY=0;entryDx=0;entryDy=0;fontSize=18;fontColor=#000000;exitX=0.5;exitY=1;exitDx=0;exitDy=0;" parent="1" source="96" target="29" edge="1">
                    <mxGeometry relative="1" as="geometry">
                        <mxPoint x="-112.5" y="680" as="sourcePoint"/>
                    </mxGeometry>
                </mxCell>
                <mxCell id="80" style="edgeStyle=orthogonalEdgeStyle;html=1;fontSize=18;fontColor=#000000;" parent="1" source="28" edge="1">
                    <mxGeometry relative="1" as="geometry">
                        <mxPoint x="-550" y="300" as="targetPoint"/>
                    </mxGeometry>
                </mxCell>
                <mxCell id="28" value="&lt;font style=&quot;font-size: 13px;&quot;&gt;Vous êtes coincé et vous ne pouvez pas échapper&amp;nbsp;&lt;/font&gt;" style="rounded=1;whiteSpace=wrap;html=1;strokeColor=#C73500;fontSize=18;fillColor=#fa6800;fontColor=#000000;" parent="1" vertex="1">
                    <mxGeometry x="-510" y="370" width="120" height="60" as="geometry"/>
                </mxCell>
                <mxCell id="65" style="edgeStyle=orthogonalEdgeStyle;html=1;entryX=1;entryY=0.5;entryDx=0;entryDy=0;fontSize=18;fontColor=#000000;startArrow=none;" parent="1" source="108" target="30" edge="1">
                    <mxGeometry relative="1" as="geometry">
                        <mxPoint x="-250" y="737.5" as="sourcePoint"/>
                    </mxGeometry>
                </mxCell>
                <mxCell id="102" style="edgeStyle=orthogonalEdgeStyle;html=1;exitX=1;exitY=0.5;exitDx=0;exitDy=0;entryX=0;entryY=0.5;entryDx=0;entryDy=0;fontSize=13;fontColor=#FFFFFF;startArrow=none;" parent="1" source="99" target="32" edge="1">
                    <mxGeometry relative="1" as="geometry"/>
                </mxCell>
                <mxCell id="29" value="cachez-vous du bruit ou courez" style="rhombus;whiteSpace=wrap;html=1;strokeColor=#BD7000;fontSize=18;fillColor=#f0a30a;fontColor=#000000;" parent="1" vertex="1">
                    <mxGeometry x="-190" y="730" width="155" height="155" as="geometry"/>
                </mxCell>
                <mxCell id="79" style="edgeStyle=orthogonalEdgeStyle;html=1;fontSize=18;fontColor=#000000;" parent="1" source="30" edge="1">
                    <mxGeometry relative="1" as="geometry">
                        <mxPoint x="-550" y="620" as="targetPoint"/>
                    </mxGeometry>
                </mxCell>
                <mxCell id="30" value="L'Alien vous trouve" style="rounded=1;whiteSpace=wrap;html=1;strokeColor=#C73500;fontSize=18;fillColor=#fa6800;fontColor=#000000;" parent="1" vertex="1">
                    <mxGeometry x="-510" y="707.5" width="120" height="60" as="geometry"/>
                </mxCell>
                <mxCell id="45" style="edgeStyle=orthogonalEdgeStyle;html=1;fontSize=18;fontColor=#000000;" parent="1" source="31" edge="1">
                    <mxGeometry relative="1" as="geometry">
                        <mxPoint x="934.5" y="370" as="targetPoint"/>
                    </mxGeometry>
                </mxCell>
                <mxCell id="31" value="&lt;span style=&quot;font-size: 13px;&quot;&gt;Vous êtes coincé et vous ne pouvez pas échapper&amp;nbsp;&lt;/span&gt;" style="rounded=1;whiteSpace=wrap;html=1;strokeColor=#C73500;fontSize=18;fillColor=#fa6800;fontColor=#000000;" parent="1" vertex="1">
                    <mxGeometry x="714.5" y="707.5" width="120" height="60" as="geometry"/>
                </mxCell>
                <mxCell id="61" style="edgeStyle=orthogonalEdgeStyle;html=1;fontSize=18;fontColor=#000000;startArrow=none;" parent="1" source="122" edge="1">
                    <mxGeometry relative="1" as="geometry">
                        <mxPoint x="170" y="1380" as="targetPoint"/>
                    </mxGeometry>
                </mxCell>
                <mxCell id="32" value="&lt;font color=&quot;#000000&quot;&gt;tu trouves un levier&lt;/font&gt;" style="rounded=1;whiteSpace=wrap;html=1;strokeColor=#3A5431;fontSize=18;fillColor=#6d8764;fontColor=#ffffff;" parent="1" vertex="1">
                    <mxGeometry x="110" y="777.5" width="120" height="60" as="geometry"/>
                </mxCell>
                <mxCell id="49" style="edgeStyle=orthogonalEdgeStyle;html=1;fontSize=18;fontColor=#000000;startArrow=none;" parent="1" source="124" edge="1">
                    <mxGeometry relative="1" as="geometry">
                        <mxPoint x="170" y="1380" as="targetPoint"/>
                        <Array as="points"/>
                    </mxGeometry>
                </mxCell>
                <mxCell id="52" style="edgeStyle=orthogonalEdgeStyle;html=1;fontSize=18;fontColor=#000000;startArrow=none;" parent="1" source="134" edge="1">
                    <mxGeometry relative="1" as="geometry">
                        <mxPoint x="426" y="1490" as="targetPoint"/>
                    </mxGeometry>
                </mxCell>
                <mxCell id="132" style="edgeStyle=orthogonalEdgeStyle;html=1;fontSize=13;fontColor=#FFFFFF;startArrow=none;" parent="1" source="126" edge="1">
                    <mxGeometry relative="1" as="geometry">
                        <mxPoint x="720" y="1230" as="targetPoint"/>
                        <Array as="points">
                            <mxPoint x="426" y="1230"/>
                        </Array>
                    </mxGeometry>
                </mxCell>
                <mxCell id="35" value="&lt;div&gt;&lt;span style=&quot;background-color: initial;&quot;&gt;choisir un chemin&lt;/span&gt;&lt;br&gt;&lt;/div&gt;" style="rhombus;whiteSpace=wrap;html=1;strokeColor=#BD7000;fontSize=18;fillColor=#f0a30a;fontColor=#000000;" parent="1" vertex="1">
                    <mxGeometry x="348" y="1030" width="155" height="155" as="geometry"/>
                </mxCell>
                <mxCell id="54" style="edgeStyle=orthogonalEdgeStyle;html=1;fontSize=18;fontColor=#000000;" parent="1" source="36" edge="1">
                    <mxGeometry relative="1" as="geometry">
                        <mxPoint x="934.5" y="1180" as="targetPoint"/>
                    </mxGeometry>
                </mxCell>
                <mxCell id="36" value="L'Alien vous trouve" style="rounded=1;whiteSpace=wrap;html=1;strokeColor=#C73500;fontSize=18;fillColor=#fa6800;fontColor=#000000;" parent="1" vertex="1">
                    <mxGeometry x="724.5" y="1200" width="120" height="60" as="geometry"/>
                </mxCell>
                <mxCell id="53" style="edgeStyle=orthogonalEdgeStyle;html=1;fontSize=18;fontColor=#000000;" parent="1" source="37" edge="1">
                    <mxGeometry relative="1" as="geometry">
                        <mxPoint x="934.5" y="710" as="targetPoint"/>
                        <mxPoint x="490" y="1370" as="sourcePoint"/>
                        <Array as="points">
                            <mxPoint x="934" y="1370"/>
                        </Array>
                    </mxGeometry>
                </mxCell>
                <mxCell id="37" value="&lt;span style=&quot;font-size: 13px;&quot;&gt;Vous êtes coincé et vous ne pouvez pas échapper&amp;nbsp;&lt;/span&gt;" style="rounded=1;whiteSpace=wrap;html=1;strokeColor=#C73500;fontSize=18;fillColor=#fa6800;fontColor=#000000;" parent="1" vertex="1">
                    <mxGeometry x="365.5" y="1490" width="120" height="60" as="geometry"/>
                </mxCell>
                <mxCell id="64" style="edgeStyle=orthogonalEdgeStyle;html=1;entryX=0.5;entryY=0;entryDx=0;entryDy=0;fontSize=18;fontColor=#000000;exitX=0.497;exitY=1.079;exitDx=0;exitDy=0;exitPerimeter=0;" parent="1" source="100" target="41" edge="1">
                    <mxGeometry relative="1" as="geometry">
                        <mxPoint x="-112.5" y="1050" as="sourcePoint"/>
                    </mxGeometry>
                </mxCell>
                <mxCell id="66" style="edgeStyle=orthogonalEdgeStyle;html=1;entryX=1;entryY=0.5;entryDx=0;entryDy=0;fontSize=18;fontColor=#000000;exitX=0;exitY=0.5;exitDx=0;exitDy=0;startArrow=none;" parent="1" source="118" target="43" edge="1">
                    <mxGeometry relative="1" as="geometry">
                        <mxPoint x="-250" y="1047.5" as="sourcePoint"/>
                    </mxGeometry>
                </mxCell>
                <mxCell id="67" style="edgeStyle=orthogonalEdgeStyle;html=1;fontSize=18;fontColor=#000000;startArrow=none;" parent="1" source="120" edge="1">
                    <mxGeometry relative="1" as="geometry">
                        <mxPoint x="170" y="1380" as="targetPoint"/>
                        <Array as="points">
                            <mxPoint x="170" y="1230"/>
                        </Array>
                    </mxGeometry>
                </mxCell>
                <mxCell id="41" value="Allez dans &lt;br&gt;la capsule de secours 1 &lt;br&gt;ou 2." style="rhombus;whiteSpace=wrap;html=1;strokeColor=#BD7000;fontSize=18;fillColor=#f0a30a;fontColor=#000000;" parent="1" vertex="1">
                    <mxGeometry x="-190" y="1152.5" width="155" height="155" as="geometry"/>
                </mxCell>
                <mxCell id="78" style="edgeStyle=orthogonalEdgeStyle;html=1;fontSize=18;fontColor=#000000;" parent="1" source="43" edge="1">
                    <mxGeometry relative="1" as="geometry">
                        <mxPoint x="-550" y="940" as="targetPoint"/>
                    </mxGeometry>
                </mxCell>
                <mxCell id="43" value="&lt;span style=&quot;font-size: 13px;&quot;&gt;Vous êtes coincé et vous ne pouvez pas échapper&amp;nbsp;&lt;/span&gt;" style="rounded=1;whiteSpace=wrap;html=1;strokeColor=#C73500;fontSize=18;fillColor=#fa6800;fontColor=#000000;" parent="1" vertex="1">
                    <mxGeometry x="-510" y="1017.5" width="120" height="60" as="geometry"/>
                </mxCell>
                <mxCell id="71" style="edgeStyle=orthogonalEdgeStyle;html=1;fontSize=18;fontColor=#000000;exitX=1;exitY=0.5;exitDx=0;exitDy=0;startArrow=none;" parent="1" source="139" target="37" edge="1">
                    <mxGeometry relative="1" as="geometry">
                        <mxPoint x="430" y="1370" as="targetPoint"/>
                        <Array as="points">
                            <mxPoint x="426" y="1468"/>
                        </Array>
                    </mxGeometry>
                </mxCell>
                <mxCell id="72" style="edgeStyle=orthogonalEdgeStyle;html=1;fontSize=18;fontColor=#000000;entryX=1;entryY=0.5;entryDx=0;entryDy=0;startArrow=none;" parent="1" source="141" target="73" edge="1">
                    <mxGeometry relative="1" as="geometry">
                        <mxPoint x="-170" y="1370" as="targetPoint"/>
                    </mxGeometry>
                </mxCell>
                <mxCell id="76" style="edgeStyle=orthogonalEdgeStyle;html=1;entryX=0.5;entryY=0;entryDx=0;entryDy=0;fontSize=18;fontColor=#000000;startArrow=none;" parent="1" source="136" target="75" edge="1">
                    <mxGeometry relative="1" as="geometry"/>
                </mxCell>
                <mxCell id="69" value="&lt;span style=&quot;font-size: 13px; text-align: left;&quot;&gt;Essayez d'ouvrir&lt;br&gt;&amp;nbsp;la trappe&lt;/span&gt;" style="rhombus;whiteSpace=wrap;html=1;strokeColor=#BD7000;fontSize=18;fillColor=#f0a30a;fontColor=#000000;" parent="1" vertex="1">
                    <mxGeometry x="92.5" y="1390" width="155" height="155" as="geometry"/>
                </mxCell>
                <mxCell id="77" style="edgeStyle=orthogonalEdgeStyle;html=1;fontSize=18;fontColor=#000000;" parent="1" source="73" edge="1">
                    <mxGeometry relative="1" as="geometry">
                        <mxPoint x="360" y="230" as="targetPoint"/>
                        <Array as="points">
                            <mxPoint x="-550" y="1370"/>
                            <mxPoint x="-550" y="230"/>
                        </Array>
                    </mxGeometry>
                </mxCell>
                <mxCell id="73" value="L'Alien vous trouve" style="rounded=1;whiteSpace=wrap;html=1;strokeColor=#C73500;fontSize=18;fillColor=#fa6800;fontColor=#000000;" parent="1" vertex="1">
                    <mxGeometry x="-450" y="1340" width="120" height="60" as="geometry"/>
                </mxCell>
                <mxCell id="75" value="&lt;span style=&quot;font-size: 13px; text-align: left;&quot;&gt;&lt;font color=&quot;#000000&quot;&gt;Vous ete sauver&lt;/font&gt;&lt;/span&gt;" style="ellipse;whiteSpace=wrap;html=1;strokeColor=#666666;fontSize=18;fillColor=#f5f5f5;fontColor=#333333;" parent="1" vertex="1">
                    <mxGeometry x="110" y="1660" width="120" height="80" as="geometry"/>
                </mxCell>
                <mxCell id="83" value="" style="edgeStyle=none;html=1;fontSize=18;entryX=0;entryY=0.5;entryDx=0;entryDy=0;exitX=0.983;exitY=0.494;exitDx=0;exitDy=0;exitPerimeter=0;endArrow=none;" parent="1" source="17" target="82" edge="1">
                    <mxGeometry relative="1" as="geometry">
                        <mxPoint x="714.5" y="400" as="targetPoint"/>
                        <mxPoint x="500.36500000000024" y="399.06999999999994" as="sourcePoint"/>
                    </mxGeometry>
                </mxCell>
                <mxCell id="82" value="&lt;font color=&quot;#ffffff&quot;&gt;descendre &lt;br&gt;les escaliers&lt;br&gt;vers le bas&lt;br&gt;&lt;/font&gt;" style="text;html=1;align=center;verticalAlign=middle;resizable=0;points=[];autosize=1;strokeColor=none;fillColor=none;fontSize=15;fontColor=#000000;" parent="1" vertex="1">
                    <mxGeometry x="550" y="365" width="110" height="70" as="geometry"/>
                </mxCell>
                <mxCell id="87" value="" style="edgeStyle=none;html=1;fontSize=18;exitX=0;exitY=0.5;exitDx=0;exitDy=0;entryX=1;entryY=0.5;entryDx=0;entryDy=0;endArrow=none;" parent="1" source="17" target="86" edge="1">
                    <mxGeometry relative="1" as="geometry">
                        <mxPoint x="160.00000000000045" y="400" as="targetPoint"/>
                        <mxPoint x="348" y="400" as="sourcePoint"/>
                    </mxGeometry>
                </mxCell>
                <mxCell id="86" value="descendre&lt;br&gt;les escaliers&lt;br&gt;vers le haut" style="text;html=1;align=center;verticalAlign=middle;resizable=0;points=[];autosize=1;strokeColor=none;fillColor=none;fontSize=15;fontColor=#FFFFFF;" parent="1" vertex="1">
                    <mxGeometry x="210" y="365" width="110" height="70" as="geometry"/>
                </mxCell>
                <mxCell id="91" value="" style="edgeStyle=none;html=1;entryX=0.5;entryY=0;entryDx=0;entryDy=0;fontSize=18;exitX=0.5;exitY=1;exitDx=0;exitDy=0;endArrow=none;" parent="1" source="17" target="88" edge="1">
                    <mxGeometry relative="1" as="geometry">
                        <mxPoint x="425.5" y="477.5" as="sourcePoint"/>
                        <mxPoint x="425" y="620" as="targetPoint"/>
                    </mxGeometry>
                </mxCell>
                <mxCell id="98" style="edgeStyle=orthogonalEdgeStyle;html=1;entryX=0.5;entryY=0;entryDx=0;entryDy=0;fontSize=13;fontColor=#FFFFFF;" parent="1" source="88" target="22" edge="1">
                    <mxGeometry relative="1" as="geometry"/>
                </mxCell>
                <mxCell id="88" value="descends le couloir" style="text;whiteSpace=wrap;html=1;fontSize=15;fontColor=#FFFFFF;" parent="1" vertex="1">
                    <mxGeometry x="346" y="520" width="160" height="40" as="geometry"/>
                </mxCell>
                <mxCell id="95" value="" style="edgeStyle=orthogonalEdgeStyle;html=1;fontSize=18;fontColor=#000000;entryX=1;entryY=0.5;entryDx=0;entryDy=0;exitX=0;exitY=0.5;exitDx=0;exitDy=0;endArrow=none;" parent="1" source="23" target="94" edge="1">
                    <mxGeometry relative="1" as="geometry">
                        <mxPoint x="-390" y="400" as="targetPoint"/>
                        <mxPoint x="-190" y="400" as="sourcePoint"/>
                    </mxGeometry>
                </mxCell>
                <mxCell id="94" value="&lt;span style=&quot;&quot;&gt;passer par les&lt;/span&gt;&lt;br style=&quot;&quot;&gt;&lt;span style=&quot;&quot;&gt;bouches d'aération&lt;/span&gt;" style="text;html=1;align=center;verticalAlign=middle;resizable=0;points=[];autosize=1;strokeColor=none;fillColor=none;fontSize=13;fontColor=#FFFFFF;" parent="1" vertex="1">
                    <mxGeometry x="-360" y="380" width="130" height="40" as="geometry"/>
                </mxCell>
                <mxCell id="97" value="" style="edgeStyle=orthogonalEdgeStyle;html=1;entryX=0.5;entryY=0;entryDx=0;entryDy=0;fontSize=18;fontColor=#000000;endArrow=none;" parent="1" source="23" target="96" edge="1">
                    <mxGeometry relative="1" as="geometry">
                        <mxPoint x="-112.5" y="477.5" as="sourcePoint"/>
                        <mxPoint x="-112.5" y="620" as="targetPoint"/>
                    </mxGeometry>
                </mxCell>
                <mxCell id="96" value="va à l'intérieur du medbay" style="text;whiteSpace=wrap;html=1;fontSize=13;fontColor=#FFFFFF;" parent="1" vertex="1">
                    <mxGeometry x="-202.5" y="530" width="180" height="40" as="geometry"/>
                </mxCell>
                <mxCell id="103" value="" style="edgeStyle=orthogonalEdgeStyle;html=1;exitX=1;exitY=0.5;exitDx=0;exitDy=0;entryX=0;entryY=0.5;entryDx=0;entryDy=0;fontSize=13;fontColor=#FFFFFF;endArrow=none;" parent="1" source="29" target="99" edge="1">
                    <mxGeometry relative="1" as="geometry">
                        <mxPoint x="-35" y="807.5000000000002" as="sourcePoint"/>
                        <mxPoint x="100" y="807.5000000000002" as="targetPoint"/>
                    </mxGeometry>
                </mxCell>
                <mxCell id="99" value="courir à &lt;br&gt;droite" style="text;whiteSpace=wrap;html=1;fontSize=13;fontColor=#FFFFFF;align=center;" parent="1" vertex="1">
                    <mxGeometry y="787.5" width="60" height="40" as="geometry"/>
                </mxCell>
                <mxCell id="107" value="" style="edgeStyle=orthogonalEdgeStyle;html=1;entryX=0.5;entryY=0;entryDx=0;entryDy=0;fontSize=13;fontColor=#FFFFFF;endArrow=none;" parent="1" source="29" target="100" edge="1">
                    <mxGeometry relative="1" as="geometry">
                        <mxPoint x="-112.5" y="885.0000000000002" as="sourcePoint"/>
                        <mxPoint x="-112.5" y="970" as="targetPoint"/>
                    </mxGeometry>
                </mxCell>
                <mxCell id="100" value="&lt;div&gt;courir à&amp;nbsp;&lt;/div&gt;&lt;div&gt;gauche&lt;/div&gt;&lt;div&gt;&lt;br&gt;&lt;/div&gt;" style="text;html=1;align=center;verticalAlign=middle;resizable=0;points=[];autosize=1;strokeColor=none;fillColor=none;fontSize=13;fontColor=#FFFFFF;" parent="1" vertex="1">
                    <mxGeometry x="-147.5" y="950" width="70" height="60" as="geometry"/>
                </mxCell>
                <mxCell id="109" value="" style="edgeStyle=orthogonalEdgeStyle;html=1;entryX=1;entryY=0.5;entryDx=0;entryDy=0;fontSize=18;fontColor=#000000;endArrow=none;" parent="1" source="29" target="108" edge="1">
                    <mxGeometry relative="1" as="geometry">
                        <mxPoint x="-189.97826086956547" y="807.5217391304348" as="sourcePoint"/>
                        <mxPoint x="-390.0000000000002" y="737.5" as="targetPoint"/>
                    </mxGeometry>
                </mxCell>
                <mxCell id="108" value="cacher" style="text;html=1;align=center;verticalAlign=middle;resizable=0;points=[];autosize=1;strokeColor=none;fillColor=none;fontSize=13;fontColor=#FFFFFF;" parent="1" vertex="1">
                    <mxGeometry x="-280" y="792.5" width="60" height="30" as="geometry"/>
                </mxCell>
                <mxCell id="111" value="" style="edgeStyle=orthogonalEdgeStyle;html=1;entryX=0;entryY=0.5;entryDx=0;entryDy=0;fontSize=18;fontColor=#000000;endArrow=none;" parent="1" source="22" target="110" edge="1">
                    <mxGeometry relative="1" as="geometry">
                        <mxPoint x="502.9782608695655" y="807.5217391304348" as="sourcePoint"/>
                        <mxPoint x="714.5" y="737.5" as="targetPoint"/>
                    </mxGeometry>
                </mxCell>
                <mxCell id="110" value="&lt;font color=&quot;#ffffff&quot;&gt;courir&lt;/font&gt;" style="text;html=1;align=center;verticalAlign=middle;resizable=0;points=[];autosize=1;strokeColor=none;fillColor=none;fontSize=13;fontColor=#000000;" parent="1" vertex="1">
                    <mxGeometry x="530" y="792.5" width="60" height="30" as="geometry"/>
                </mxCell>
                <mxCell id="114" value="" style="edgeStyle=orthogonalEdgeStyle;html=1;fontSize=18;fontColor=#000000;entryX=1;entryY=0.5;entryDx=0;entryDy=0;endArrow=none;" parent="1" source="22" target="112" edge="1">
                    <mxGeometry relative="1" as="geometry">
                        <mxPoint x="230" y="807.5000000000002" as="targetPoint"/>
                        <mxPoint x="348" y="807.5000000000002" as="sourcePoint"/>
                    </mxGeometry>
                </mxCell>
                <mxCell id="112" value="ne bouge pas" style="text;whiteSpace=wrap;html=1;fontSize=13;fontColor=#FFFFFF;align=center;" parent="1" vertex="1">
                    <mxGeometry x="260" y="787.5" width="60" height="40" as="geometry"/>
                </mxCell>
                <mxCell id="117" value="" style="edgeStyle=orthogonalEdgeStyle;html=1;entryX=0.5;entryY=0;entryDx=0;entryDy=0;fontSize=13;fontColor=#FFFFFF;endArrow=none;" parent="1" source="22" target="115" edge="1">
                    <mxGeometry relative="1" as="geometry">
                        <mxPoint x="425.521739130435" y="884.9782608695655" as="sourcePoint"/>
                        <mxPoint x="426" y="1040" as="targetPoint"/>
                    </mxGeometry>
                </mxCell>
                <mxCell id="115" value="avancer lentement" style="text;html=1;align=center;verticalAlign=middle;resizable=0;points=[];autosize=1;strokeColor=none;fillColor=none;fontSize=13;fontColor=#FFFFFF;" parent="1" vertex="1">
                    <mxGeometry x="361" y="940" width="130" height="30" as="geometry"/>
                </mxCell>
                <mxCell id="119" value="" style="edgeStyle=orthogonalEdgeStyle;html=1;entryX=1;entryY=0.5;entryDx=0;entryDy=0;fontSize=18;fontColor=#000000;exitX=0;exitY=0.5;exitDx=0;exitDy=0;endArrow=none;" parent="1" source="41" target="118" edge="1">
                    <mxGeometry relative="1" as="geometry">
                        <mxPoint x="-190" y="1230" as="sourcePoint"/>
                        <mxPoint x="-390.0000000000002" y="1047.5" as="targetPoint"/>
                    </mxGeometry>
                </mxCell>
                <mxCell id="118" value="&lt;div&gt;&lt;br&gt;&lt;/div&gt;&lt;div&gt;module 1&lt;/div&gt;" style="text;html=1;align=center;verticalAlign=middle;resizable=0;points=[];autosize=1;strokeColor=none;fillColor=none;fontSize=13;fontColor=#FFFFFF;" parent="1" vertex="1">
                    <mxGeometry x="-335" y="1100" width="80" height="40" as="geometry"/>
                </mxCell>
                <mxCell id="121" value="" style="edgeStyle=orthogonalEdgeStyle;html=1;fontSize=18;fontColor=#000000;endArrow=none;" parent="1" source="41" target="120" edge="1">
                    <mxGeometry relative="1" as="geometry">
                        <mxPoint x="170" y="1290" as="targetPoint"/>
                        <mxPoint x="-35.043478260869506" y="1229.9565217391305" as="sourcePoint"/>
                        <Array as="points"/>
                    </mxGeometry>
                </mxCell>
                <mxCell id="120" value="module 2" style="text;whiteSpace=wrap;html=1;fontSize=13;fontColor=#FFFFFF;" parent="1" vertex="1">
                    <mxGeometry x="30" y="1215" width="60" height="30" as="geometry"/>
                </mxCell>
                <mxCell id="123" value="" style="edgeStyle=orthogonalEdgeStyle;html=1;fontSize=18;fontColor=#000000;endArrow=none;" parent="1" source="32" target="122" edge="1">
                    <mxGeometry relative="1" as="geometry">
                        <mxPoint x="170" y="1290" as="targetPoint"/>
                        <mxPoint x="170" y="837.5000000000002" as="sourcePoint"/>
                    </mxGeometry>
                </mxCell>
                <mxCell id="122" value="trouver la capsule de sauvetage" style="text;html=1;align=center;verticalAlign=middle;resizable=0;points=[];autosize=1;strokeColor=none;fillColor=none;fontSize=13;fontColor=#FFFFFF;" parent="1" vertex="1">
                    <mxGeometry x="65" y="1047.5" width="210" height="30" as="geometry"/>
                </mxCell>
                <mxCell id="125" value="" style="edgeStyle=orthogonalEdgeStyle;html=1;fontSize=18;fontColor=#000000;endArrow=none;" parent="1" source="35" target="124" edge="1">
                    <mxGeometry relative="1" as="geometry">
                        <mxPoint x="170" y="1290" as="targetPoint"/>
                        <mxPoint x="425.521739130435" y="1184.978260869565" as="sourcePoint"/>
                        <Array as="points">
                            <mxPoint x="426" y="1230"/>
                        </Array>
                    </mxGeometry>
                </mxCell>
                <mxCell id="124" value="Allez vers le feu rouge" style="text;html=1;align=center;verticalAlign=middle;resizable=0;points=[];autosize=1;strokeColor=none;fillColor=none;fontSize=13;fontColor=#FFFFFF;" parent="1" vertex="1">
                    <mxGeometry x="230" y="1215" width="150" height="30" as="geometry"/>
                </mxCell>
                <mxCell id="126" value="Allez vers le feu vert" style="text;html=1;align=center;verticalAlign=middle;resizable=0;points=[];autosize=1;strokeColor=none;fillColor=none;fontSize=13;fontColor=#FFFFFF;" parent="1" vertex="1">
                    <mxGeometry x="491" y="1200" width="140" height="30" as="geometry"/>
                </mxCell>
                <mxCell id="135" value="" style="edgeStyle=orthogonalEdgeStyle;html=1;fontSize=18;fontColor=#000000;endArrow=none;" parent="1" source="35" target="134" edge="1">
                    <mxGeometry relative="1" as="geometry">
                        <mxPoint x="426" y="1410" as="targetPoint"/>
                        <mxPoint x="425.521739130435" y="1184.978260869565" as="sourcePoint"/>
                    </mxGeometry>
                </mxCell>
                <mxCell id="134" value="essaie d'y retourner" style="text;html=1;align=center;verticalAlign=middle;resizable=0;points=[];autosize=1;strokeColor=none;fillColor=none;fontSize=13;fontColor=#FFFFFF;" parent="1" vertex="1">
                    <mxGeometry x="356" y="1292.5" width="140" height="30" as="geometry"/>
                </mxCell>
                <mxCell id="137" value="" style="edgeStyle=orthogonalEdgeStyle;html=1;entryX=0.5;entryY=0;entryDx=0;entryDy=0;fontSize=18;fontColor=#000000;endArrow=none;" parent="1" source="69" target="136" edge="1">
                    <mxGeometry relative="1" as="geometry">
                        <mxPoint x="170" y="1545" as="sourcePoint"/>
                        <mxPoint x="170" y="1660" as="targetPoint"/>
                    </mxGeometry>
                </mxCell>
                <mxCell id="136" value="tu l'ouvres avec la clé ou le levier" style="text;whiteSpace=wrap;html=1;fontSize=13;fontColor=#FFFFFF;" parent="1" vertex="1">
                    <mxGeometry x="115" y="1580" width="110" height="40" as="geometry"/>
                </mxCell>
                <mxCell id="140" value="" style="edgeStyle=orthogonalEdgeStyle;html=1;fontSize=18;fontColor=#000000;exitX=1;exitY=0.5;exitDx=0;exitDy=0;endArrow=none;" parent="1" source="69" target="139" edge="1">
                    <mxGeometry relative="1" as="geometry">
                        <mxPoint x="425.9565217391305" y="1490" as="targetPoint"/>
                        <mxPoint x="247.5" y="1467.5" as="sourcePoint"/>
                        <Array as="points"/>
                    </mxGeometry>
                </mxCell>
                <mxCell id="139" value="&lt;font color=&quot;#ffffff&quot;&gt;essaie de le pirater&lt;/font&gt;" style="text;html=1;align=center;verticalAlign=middle;resizable=0;points=[];autosize=1;strokeColor=none;fillColor=none;fontSize=13;fontColor=#000000;" parent="1" vertex="1">
                    <mxGeometry x="270" y="1452.5" width="130" height="30" as="geometry"/>
                </mxCell>
                <mxCell id="142" value="" style="edgeStyle=orthogonalEdgeStyle;html=1;fontSize=18;fontColor=#000000;entryX=1;entryY=0.5;entryDx=0;entryDy=0;endArrow=none;" parent="1" source="69" target="141" edge="1">
                    <mxGeometry relative="1" as="geometry">
                        <mxPoint x="-330.0000000000002" y="1370" as="targetPoint"/>
                        <mxPoint x="92.52173913043453" y="1467.521739130435" as="sourcePoint"/>
                    </mxGeometry>
                </mxCell>
                <mxCell id="141" value="Essayez de vous frayer un chemin" style="text;html=1;align=center;verticalAlign=middle;resizable=0;points=[];autosize=1;strokeColor=none;fillColor=none;fontSize=13;fontColor=#FFFFFF;" parent="1" vertex="1">
                    <mxGeometry x="-255" y="1400" width="220" height="30" as="geometry"/>
                </mxCell>
            </root>
        </mxGraphModel>
    </diagram>
</mxfile>